<?xml version="1.0" encoding="utf-8"?>
<!-- Generator: Adobe Illustrator 19.2.1, SVG Export Plug-In . SVG Version: 6.00 Build 0)  -->
<svg version="1.1" id="Layer_1" xmlns="http://www.w3.org/2000/svg" xmlns:xlink="http://www.w3.org/1999/xlink" x="0px" y="0px"
	 viewBox="0 0 60 48.1" style="enable-background:new 0 0 60 48.1;" xml:space="preserve">
<style type="text/css">
	.st0{fill:#FFFFFF;}
</style>
<path class="st0" d="M32,14.8H35c0.4,0,0.7,0.3,0.7,0.7v17.2c0,0.4-0.3,0.7-0.7,0.7H32c-0.4,0-0.7-0.3-0.7-0.7V15.5
	C31.4,15.1,31.7,14.8,32,14.8z"/>
<path class="st0" d="M25,14.8H28c0.4,0,0.7,0.3,0.7,0.7v17.2c0,0.4-0.3,0.7-0.7,0.7H25c-0.4,0-0.7-0.3-0.7-0.7V15.5
	C24.4,15.1,24.7,14.8,25,14.8z"/>
</svg>
