<?xml version="1.0" encoding="utf-8"?>
<!-- Generator: Adobe Illustrator 19.2.1, SVG Export Plug-In . SVG Version: 6.00 Build 0)  -->
<svg version="1.1" id="Layer_1" xmlns="http://www.w3.org/2000/svg" xmlns:xlink="http://www.w3.org/1999/xlink" x="0px" y="0px"
	 viewBox="0 0 60 48.1" style="enable-background:new 0 0 60 48.1;" xml:space="preserve">
<style type="text/css">
	.st0{fill:#FFFFFF;}
</style>
<path class="st0" d="M33.2,21.3h8.6c0.5,0,0.9-0.4,0.9-0.9v-8.6c0-0.3-0.2-0.5-0.5-0.5h-2.7c-0.3,0-0.5,0.2-0.5,0.5v3.4
	c-4.9-5-13-5.1-18-0.2s-5.1,13-0.2,18s13,5.1,18,0.2c2.3-2.3,3.7-5.4,3.8-8.6c0-0.3-0.1-0.5-0.4-0.5c0,0,0,0-0.1,0h-2.7
	c-0.2,0-0.4,0.2-0.5,0.4c-0.2,5-4.5,8.9-9.5,8.7s-8.9-4.5-8.7-9.5c0.2-5,4.5-8.9,9.5-8.7c2.3,0.1,4.5,1.1,6.1,2.7h-3.3
	c-0.3,0-0.5,0.2-0.5,0.5v2.7C32.7,21.1,32.9,21.3,33.2,21.3C33.2,21.3,33.2,21.3,33.2,21.3z"/>
</svg>
